<svg width="2000" height="500" viewBox="0 0 2000 500" fill="none" xmlns="http://www.w3.org/2000/svg">
<rect width="2000" height="500" rx="50" fill="url(#paint0_linear_3_33)"/>
<path d="M949.594 319V179H982.194L1030.99 308.4H1033.59V179H1050.19V319H1017.59L968.994 189.4H966.194V319H949.594Z" fill="white"/>
<path d="M964.933 154.444C1010.54 137.843 1055.75 133.35 1092 139.575C1128.2 145.793 1155.8 162.783 1165.5 189.456C1175.21 216.129 1164.99 246.883 1141.26 274.915C1117.49 302.985 1079.97 328.601 1034.36 345.202C988.753 361.802 943.547 366.296 907.297 360.07C871.096 353.853 843.501 336.862 833.792 310.189C824.084 283.516 834.303 252.763 858.038 224.73C881.805 196.661 919.323 171.045 964.933 154.444Z" stroke="white" stroke-width="3"/>
<circle cx="1168" cy="222" r="15" fill="#D9D9D9"/>
<circle cx="1165" cy="212" r="1" fill="#A7A7A7"/>
<circle cx="1160" cy="223" r="1" fill="#A7A7A7"/>
<circle cx="1171" cy="221" r="1" fill="#A7A7A7"/>
<circle cx="1167" cy="230" r="2" fill="#A7A7A7"/>
<circle cx="1176.5" cy="216.5" r="1.5" fill="#A7A7A7"/>
<circle cx="1175.5" cy="227.5" r="1.5" fill="#A7A7A7"/>
<path d="M71.4766 136V66H87.7766L112.177 130.7H113.477V66H121.777V136H105.477L81.1766 71.2H79.7766V136H71.4766ZM137.883 136V66H180.983V73.6H146.283V97H178.183V104.6H146.283V128.4H181.483V136H137.883ZM190.93 136V128.5H200.73V73.5H190.93V66H226.03C230.097 66 233.697 66.7333 236.83 68.2C240.03 69.6667 242.497 71.7333 244.23 74.4C246.03 77 246.93 80.0667 246.93 83.6V84.4C246.93 87.6667 246.297 90.3667 245.03 92.5C243.764 94.5667 242.264 96.2 240.53 97.4C238.797 98.5333 237.097 99.3667 235.43 99.9V101.3C237.097 101.7 238.83 102.5 240.63 103.7C242.43 104.833 243.93 106.467 245.13 108.6C246.397 110.733 247.03 113.433 247.03 116.7V117.7C247.03 121.5 246.097 124.8 244.23 127.6C242.43 130.333 239.93 132.433 236.73 133.9C233.597 135.3 229.997 136 225.93 136H190.93ZM209.13 128.4H225.03C229.43 128.4 232.797 127.367 235.13 125.3C237.464 123.233 238.63 120.433 238.63 116.9V116C238.63 112.467 237.464 109.667 235.13 107.6C232.797 105.533 229.43 104.5 225.03 104.5H209.13V128.4ZM209.13 96.9H225.33C229.33 96.9 232.53 95.9 234.93 93.9C237.33 91.8333 238.53 89.1333 238.53 85.8V84.8C238.53 81.4 237.33 78.7 234.93 76.7C232.597 74.6333 229.397 73.6 225.33 73.6H209.13V96.9ZM285.644 137.4C280.444 137.4 275.91 136.467 272.044 134.6C268.177 132.733 265.177 129.967 263.044 126.3C260.91 122.567 259.844 118 259.844 112.6V66H268.144V112.7C268.144 118.433 269.677 122.733 272.744 125.6C275.81 128.467 280.11 129.9 285.644 129.9C291.177 129.9 295.477 128.467 298.544 125.6C301.61 122.733 303.144 118.433 303.144 112.7V66H311.544V112.6C311.544 118 310.477 122.567 308.344 126.3C306.21 129.967 303.177 132.733 299.244 134.6C295.377 136.467 290.844 137.4 285.644 137.4ZM326.945 136V66H335.345V128.4H370.745V136H326.945ZM376.035 136L397.635 66H412.435L434.035 136H425.335L419.935 118.3H390.135L384.735 136H376.035ZM392.235 110.7H417.735L405.735 71.1H404.335L392.235 110.7ZM66.7695 353L81.8895 304H92.2495L107.37 353H101.28L97.4995 340.61H76.6395L72.8595 353H66.7695ZM78.1095 335.29H95.9595L87.5595 307.57H86.5795L78.1095 335.29ZM114.921 353V318.77H120.311V323.04H121.291C121.945 321.827 123.018 320.707 124.511 319.68C126.005 318.653 128.105 318.14 130.811 318.14C133.471 318.14 135.618 318.723 137.251 319.89C138.931 321.057 140.145 322.48 140.891 324.16H141.871C142.665 322.48 143.855 321.057 145.441 319.89C147.075 318.723 149.338 318.14 152.231 318.14C154.518 318.14 156.525 318.607 158.251 319.54C159.978 320.473 161.331 321.827 162.311 323.6C163.338 325.327 163.851 327.403 163.851 329.83V353H158.321V330.32C158.321 328.033 157.645 326.237 156.291 324.93C154.985 323.577 153.141 322.9 150.761 322.9C148.241 322.9 146.165 323.717 144.531 325.35C142.945 326.983 142.151 329.34 142.151 332.42V353H136.621V330.32C136.621 328.033 135.945 326.237 134.591 324.93C133.285 323.577 131.441 322.9 129.061 322.9C126.541 322.9 124.465 323.717 122.831 325.35C121.245 326.983 120.451 329.34 120.451 332.42V353H114.921ZM190.966 353.98C187.513 353.98 184.456 353.257 181.796 351.81C179.183 350.363 177.129 348.333 175.636 345.72C174.189 343.06 173.466 339.933 173.466 336.34V335.43C173.466 331.883 174.189 328.78 175.636 326.12C177.129 323.46 179.183 321.407 181.796 319.96C184.456 318.513 187.513 317.79 190.966 317.79C194.419 317.79 197.453 318.513 200.066 319.96C202.726 321.407 204.779 323.46 206.226 326.12C207.719 328.78 208.466 331.883 208.466 335.43V336.34C208.466 339.933 207.719 343.06 206.226 345.72C204.779 348.333 202.726 350.363 200.066 351.81C197.453 353.257 194.419 353.98 190.966 353.98ZM190.966 349.01C194.606 349.01 197.499 347.867 199.646 345.58C201.839 343.247 202.936 340.12 202.936 336.2V335.57C202.936 331.65 201.839 328.547 199.646 326.26C197.499 323.927 194.606 322.76 190.966 322.76C187.373 322.76 184.479 323.927 182.286 326.26C180.093 328.547 178.996 331.65 178.996 335.57V336.2C178.996 340.12 180.093 343.247 182.286 345.58C184.479 347.867 187.373 349.01 190.966 349.01ZM218.417 353V318.77H223.807V324.58H224.787C225.534 322.947 226.794 321.477 228.567 320.17C230.387 318.817 233.047 318.14 236.547 318.14C239.114 318.14 241.401 318.677 243.407 319.75C245.461 320.823 247.094 322.41 248.307 324.51C249.521 326.61 250.127 329.2 250.127 332.28V353H244.597V332.7C244.597 329.293 243.734 326.82 242.007 325.28C240.327 323.74 238.041 322.97 235.147 322.97C231.834 322.97 229.127 324.043 227.027 326.19C224.974 328.337 223.947 331.533 223.947 335.78V353H218.417ZM259.667 336.06V335.08C259.667 331.487 260.39 328.407 261.837 325.84C263.284 323.273 265.244 321.29 267.717 319.89C270.19 318.49 272.897 317.79 275.837 317.79C279.43 317.79 282.184 318.49 284.097 319.89C286.057 321.243 287.504 322.76 288.437 324.44H289.417V318.77H294.667V360.98C294.667 362.847 294.154 364.317 293.127 365.39C292.1 366.463 290.607 367 288.647 367H265.407V362.1H287.177C288.577 362.1 289.277 361.4 289.277 360V346.98H288.297C287.737 348.007 286.944 349.01 285.917 349.99C284.89 350.97 283.56 351.787 281.927 352.44C280.294 353.047 278.264 353.35 275.837 353.35C272.897 353.35 270.19 352.65 267.717 351.25C265.244 349.85 263.284 347.867 261.837 345.3C260.39 342.687 259.667 339.607 259.667 336.06ZM277.307 348.45C280.854 348.45 283.724 347.33 285.917 345.09C288.157 342.85 289.277 339.77 289.277 335.85V335.29C289.277 331.323 288.157 328.243 285.917 326.05C283.724 323.81 280.854 322.69 277.307 322.69C273.807 322.69 270.914 323.81 268.627 326.05C266.387 328.243 265.267 331.323 265.267 335.29V335.85C265.267 339.77 266.387 342.85 268.627 345.09C270.914 347.33 273.807 348.45 277.307 348.45ZM336.838 353C334.878 353 333.361 352.463 332.288 351.39C331.261 350.317 330.748 348.847 330.748 346.98V323.6H320.458V318.77H330.748V306.59H336.278V318.77H347.478V323.6H336.278V346.14C336.278 347.54 336.954 348.24 338.308 348.24H345.938V353H336.838ZM356.435 353V304H361.965V324.23H362.945C363.412 323.203 364.112 322.247 365.045 321.36C366.025 320.427 367.262 319.657 368.755 319.05C370.295 318.443 372.232 318.14 374.565 318.14C377.132 318.14 379.418 318.7 381.425 319.82C383.478 320.893 385.112 322.48 386.325 324.58C387.538 326.633 388.145 329.2 388.145 332.28V353H382.615V332.7C382.615 329.293 381.752 326.82 380.025 325.28C378.345 323.74 376.058 322.97 373.165 322.97C369.852 322.97 367.145 324.043 365.045 326.19C362.992 328.337 361.965 331.533 361.965 335.78V353H356.435ZM415.045 353.98C411.591 353.98 408.558 353.257 405.945 351.81C403.331 350.317 401.301 348.24 399.855 345.58C398.408 342.92 397.685 339.84 397.685 336.34V335.5C397.685 331.953 398.408 328.85 399.855 326.19C401.301 323.53 403.308 321.477 405.875 320.03C408.441 318.537 411.381 317.79 414.695 317.79C417.915 317.79 420.761 318.49 423.235 319.89C425.708 321.243 427.645 323.203 429.045 325.77C430.445 328.337 431.145 331.347 431.145 334.8V337.32H403.215C403.355 341.007 404.545 343.9 406.785 346C409.025 348.053 411.825 349.08 415.185 349.08C418.125 349.08 420.388 348.403 421.975 347.05C423.561 345.697 424.775 344.087 425.615 342.22L430.375 344.53C429.675 345.977 428.695 347.423 427.435 348.87C426.221 350.317 424.611 351.53 422.605 352.51C420.645 353.49 418.125 353.98 415.045 353.98ZM403.285 332.77H425.545C425.358 329.597 424.261 327.123 422.255 325.35C420.295 323.577 417.775 322.69 414.695 322.69C411.568 322.69 409.001 323.577 406.995 325.35C404.988 327.123 403.751 329.597 403.285 332.77ZM183.009 442.98C179.462 442.98 176.289 442.35 173.489 441.09C170.689 439.83 168.472 437.94 166.839 435.42C165.252 432.853 164.459 429.657 164.459 425.83V424.36H170.269V425.83C170.269 429.89 171.459 432.923 173.839 434.93C176.219 436.89 179.275 437.87 183.009 437.87C186.835 437.87 189.752 437.007 191.759 435.28C193.765 433.553 194.769 431.383 194.769 428.77C194.769 426.95 194.302 425.503 193.369 424.43C192.482 423.357 191.222 422.493 189.589 421.84C187.955 421.14 186.042 420.533 183.849 420.02L180.209 419.11C177.362 418.363 174.842 417.453 172.649 416.38C170.455 415.307 168.729 413.907 167.469 412.18C166.255 410.407 165.649 408.143 165.649 405.39C165.649 402.637 166.325 400.257 167.679 398.25C169.079 396.243 171.015 394.703 173.489 393.63C176.009 392.557 178.902 392.02 182.169 392.02C185.482 392.02 188.445 392.603 191.059 393.77C193.719 394.89 195.795 396.57 197.289 398.81C198.829 401.003 199.599 403.78 199.599 407.14V410.08H193.789V407.14C193.789 404.76 193.275 402.847 192.249 401.4C191.269 399.953 189.892 398.88 188.119 398.18C186.392 397.48 184.409 397.13 182.169 397.13C178.949 397.13 176.359 397.853 174.399 399.3C172.439 400.7 171.459 402.707 171.459 405.32C171.459 407.047 171.879 408.447 172.719 409.52C173.559 410.593 174.749 411.48 176.289 412.18C177.829 412.833 179.672 413.417 181.819 413.93L185.459 414.84C188.305 415.447 190.849 416.287 193.089 417.36C195.375 418.387 197.195 419.81 198.549 421.63C199.902 423.403 200.579 425.737 200.579 428.63C200.579 431.523 199.855 434.043 198.409 436.19C196.962 438.337 194.909 440.017 192.249 441.23C189.635 442.397 186.555 442.98 183.009 442.98ZM222.438 442C220.478 442 218.962 441.463 217.888 440.39C216.862 439.317 216.348 437.847 216.348 435.98V412.6H206.058V407.77H216.348V395.59H221.878V407.77H233.078V412.6H221.878V435.14C221.878 436.54 222.555 437.24 223.908 437.24H231.538V442H222.438ZM252.331 442.98C249.951 442.98 247.781 442.56 245.821 441.72C243.861 440.88 242.321 439.667 241.201 438.08C240.081 436.493 239.521 434.557 239.521 432.27C239.521 429.937 240.081 428.023 241.201 426.53C242.321 424.99 243.861 423.847 245.821 423.1C247.781 422.307 249.974 421.91 252.401 421.91H263.951V419.39C263.951 416.963 263.227 415.05 261.781 413.65C260.381 412.25 258.281 411.55 255.481 411.55C252.727 411.55 250.581 412.227 249.041 413.58C247.501 414.887 246.451 416.66 245.891 418.9L240.711 417.22C241.271 415.307 242.157 413.58 243.371 412.04C244.584 410.453 246.194 409.193 248.201 408.26C250.254 407.28 252.704 406.79 255.551 406.79C259.937 406.79 263.344 407.933 265.771 410.22C268.197 412.46 269.411 415.633 269.411 419.74V435.21C269.411 436.61 270.064 437.31 271.371 437.31H274.521V442H269.691C268.151 442 266.914 441.58 265.981 440.74C265.047 439.853 264.581 438.687 264.581 437.24V436.89H263.741C263.227 437.777 262.527 438.71 261.641 439.69C260.801 440.623 259.634 441.393 258.141 442C256.647 442.653 254.711 442.98 252.331 442.98ZM252.961 438.22C256.227 438.22 258.864 437.263 260.871 435.35C262.924 433.39 263.951 430.66 263.951 427.16V426.39H252.611C250.417 426.39 248.597 426.88 247.151 427.86C245.751 428.793 245.051 430.217 245.051 432.13C245.051 434.043 245.774 435.537 247.221 436.61C248.714 437.683 250.627 438.22 252.961 438.22ZM282.094 442V407.77H287.484V411.97H288.464C289.071 410.477 290.004 409.38 291.264 408.68C292.524 407.98 294.181 407.63 296.234 407.63H300.294V412.67H295.884C293.411 412.67 291.404 413.37 289.864 414.77C288.371 416.123 287.624 418.247 287.624 421.14V442H282.094ZM321.587 442.98C317.341 442.98 313.747 442 310.807 440.04C307.914 438.08 306.164 434.977 305.557 430.73L310.807 429.54C311.181 431.78 311.881 433.553 312.907 434.86C313.934 436.12 315.194 437.03 316.687 437.59C318.227 438.103 319.861 438.36 321.587 438.36C324.154 438.36 326.184 437.847 327.677 436.82C329.171 435.793 329.917 434.417 329.917 432.69C329.917 430.917 329.194 429.68 327.747 428.98C326.347 428.233 324.411 427.627 321.937 427.16L319.067 426.67C316.874 426.297 314.867 425.713 313.047 424.92C311.227 424.127 309.781 423.053 308.707 421.7C307.634 420.347 307.097 418.643 307.097 416.59C307.097 413.51 308.287 411.107 310.667 409.38C313.047 407.653 316.197 406.79 320.117 406.79C323.991 406.79 327.117 407.677 329.497 409.45C331.924 411.177 333.487 413.627 334.187 416.8L329.007 418.13C328.587 415.657 327.584 413.93 325.997 412.95C324.411 411.923 322.451 411.41 320.117 411.41C317.784 411.41 315.941 411.853 314.587 412.74C313.234 413.58 312.557 414.84 312.557 416.52C312.557 418.153 313.187 419.367 314.447 420.16C315.754 420.907 317.481 421.467 319.627 421.84L322.497 422.33C324.924 422.75 327.094 423.333 329.007 424.08C330.967 424.78 332.507 425.807 333.627 427.16C334.794 428.513 335.377 430.287 335.377 432.48C335.377 435.84 334.117 438.43 331.597 440.25C329.124 442.07 325.787 442.98 321.587 442.98Z" fill="white"/>
<path d="M1596.09 222.4C1587.76 222.4 1581.13 220 1576.19 215.2C1571.26 210.333 1568.79 203.267 1568.79 194V178C1568.79 168.733 1571.26 161.7 1576.19 156.9C1581.13 152.033 1587.76 149.6 1596.09 149.6C1604.36 149.6 1610.69 151.9 1615.09 156.5C1619.56 161.1 1621.79 167.4 1621.79 175.4V175.9H1613.49V175.1C1613.49 169.833 1612.06 165.533 1609.19 162.2C1606.39 158.8 1602.03 157.1 1596.09 157.1C1590.16 157.1 1585.53 158.933 1582.19 162.6C1578.86 166.2 1577.19 171.267 1577.19 177.8V194.2C1577.19 200.733 1578.86 205.833 1582.19 209.5C1585.53 213.1 1590.16 214.9 1596.09 214.9C1602.03 214.9 1606.39 213.233 1609.19 209.9C1612.06 206.5 1613.49 202.167 1613.49 196.9V195.3H1621.79V196.6C1621.79 204.6 1619.56 210.9 1615.09 215.5C1610.69 220.1 1604.36 222.4 1596.09 222.4ZM1660.35 222.4C1652.02 222.4 1645.35 220 1640.35 215.2C1635.42 210.333 1632.95 203.267 1632.95 194V178C1632.95 168.733 1635.42 161.7 1640.35 156.9C1645.35 152.033 1652.02 149.6 1660.35 149.6C1668.75 149.6 1675.42 152.033 1680.35 156.9C1685.35 161.7 1687.85 168.733 1687.85 178V194C1687.85 203.267 1685.35 210.333 1680.35 215.2C1675.42 220 1668.75 222.4 1660.35 222.4ZM1660.35 214.9C1666.42 214.9 1671.12 213.1 1674.45 209.5C1677.79 205.833 1679.45 200.767 1679.45 194.3V177.7C1679.45 171.233 1677.79 166.2 1674.45 162.6C1671.12 158.933 1666.42 157.1 1660.35 157.1C1654.35 157.1 1649.69 158.933 1646.35 162.6C1643.02 166.2 1641.35 171.233 1641.35 177.7V194.3C1641.35 200.767 1643.02 205.833 1646.35 209.5C1649.69 213.1 1654.35 214.9 1660.35 214.9ZM1701.85 221V151H1717.85L1736.45 215.7H1737.75L1756.35 151H1772.35V221H1764.25V156.5H1762.85L1744.35 221H1729.85L1711.35 156.5H1709.95V221H1701.85ZM1788.37 221V151H1796.77V221H1788.37ZM1812.79 221V151H1829.09L1853.49 215.7H1854.79V151H1863.09V221H1846.79L1822.49 156.2H1821.09V221H1812.79ZM1903.59 222.4C1898.39 222.4 1893.79 221.333 1889.79 219.2C1885.86 217 1882.76 213.8 1880.49 209.6C1878.29 205.4 1877.19 200.2 1877.19 194V178C1877.19 168.733 1879.66 161.7 1884.59 156.9C1889.52 152.033 1896.16 149.6 1904.49 149.6C1912.76 149.6 1919.06 151.867 1923.39 156.4C1927.72 160.933 1929.89 167 1929.89 174.6V175.1H1921.59V174.4C1921.59 171.067 1920.99 168.1 1919.79 165.5C1918.59 162.9 1916.72 160.867 1914.19 159.4C1911.66 157.867 1908.42 157.1 1904.49 157.1C1898.56 157.1 1893.92 158.933 1890.59 162.6C1887.26 166.2 1885.59 171.267 1885.59 177.8V194.2C1885.59 200.733 1887.26 205.833 1890.59 209.5C1893.92 213.1 1898.59 214.9 1904.59 214.9C1910.46 214.9 1914.76 213.233 1917.49 209.9C1920.29 206.567 1921.69 202.133 1921.69 196.6V194.9H1900.49V187.7H1929.89V221H1922.29V213.4H1920.89C1920.16 214.867 1919.12 216.3 1917.79 217.7C1916.46 219.1 1914.66 220.233 1912.39 221.1C1910.12 221.967 1907.19 222.4 1903.59 222.4ZM1632.4 349V341.7C1632.4 336.7 1633.27 332.7 1635 329.7C1636.8 326.7 1639.27 324.3 1642.4 322.5C1645.6 320.633 1649.4 319.033 1653.8 317.7L1659.3 316C1662.3 315.067 1664.93 313.933 1667.2 312.6C1669.47 311.2 1671.23 309.467 1672.5 307.4C1673.77 305.267 1674.4 302.667 1674.4 299.6V299.2C1674.4 294.8 1672.87 291.333 1669.8 288.8C1666.73 286.2 1662.8 284.9 1658 284.9C1652.93 284.9 1648.8 286.267 1645.6 289C1642.4 291.667 1640.8 295.733 1640.8 301.2V302.6H1632.8V301.3C1632.8 296.233 1633.9 291.933 1636.1 288.4C1638.3 284.867 1641.3 282.2 1645.1 280.4C1648.9 278.533 1653.2 277.6 1658 277.6C1662.8 277.6 1667.03 278.5 1670.7 280.3C1674.43 282.1 1677.33 284.6 1679.4 287.8C1681.47 291 1682.5 294.733 1682.5 299V299.9C1682.5 304.433 1681.6 308.2 1679.8 311.2C1678 314.133 1675.5 316.533 1672.3 318.4C1669.17 320.267 1665.47 321.867 1661.2 323.2L1655.8 324.9C1652.4 325.967 1649.57 327.1 1647.3 328.3C1645.1 329.433 1643.43 330.9 1642.3 332.7C1641.17 334.5 1640.6 336.933 1640.6 340V341.7H1681.9V349H1632.4ZM1719.35 350.4C1711.42 350.4 1705.09 348.067 1700.35 343.4C1695.69 338.667 1693.35 331.6 1693.35 322.2V305.8C1693.35 296.467 1695.69 289.433 1700.35 284.7C1705.09 279.967 1711.42 277.6 1719.35 277.6C1727.35 277.6 1733.69 279.967 1738.35 284.7C1743.09 289.433 1745.45 296.467 1745.45 305.8V322.2C1745.45 331.6 1743.09 338.667 1738.35 343.4C1733.69 348.067 1727.35 350.4 1719.35 350.4ZM1719.35 343.1C1725.35 343.1 1729.85 341.3 1732.85 337.7C1735.85 334.1 1737.35 329.067 1737.35 322.6V305.3C1737.35 298.833 1735.82 293.833 1732.75 290.3C1729.69 286.7 1725.22 284.9 1719.35 284.9C1713.49 284.9 1709.02 286.7 1705.95 290.3C1702.95 293.9 1701.45 298.9 1701.45 305.3V322.6C1701.45 329.133 1702.95 334.2 1705.95 337.8C1708.95 341.333 1713.42 343.1 1719.35 343.1ZM1756.72 349V341.7C1756.72 336.7 1757.58 332.7 1759.32 329.7C1761.12 326.7 1763.58 324.3 1766.72 322.5C1769.92 320.633 1773.72 319.033 1778.12 317.7L1783.62 316C1786.62 315.067 1789.25 313.933 1791.52 312.6C1793.78 311.2 1795.55 309.467 1796.82 307.4C1798.08 305.267 1798.72 302.667 1798.72 299.6V299.2C1798.72 294.8 1797.18 291.333 1794.12 288.8C1791.05 286.2 1787.12 284.9 1782.32 284.9C1777.25 284.9 1773.12 286.267 1769.92 289C1766.72 291.667 1765.12 295.733 1765.12 301.2V302.6H1757.12V301.3C1757.12 296.233 1758.22 291.933 1760.42 288.4C1762.62 284.867 1765.62 282.2 1769.42 280.4C1773.22 278.533 1777.52 277.6 1782.32 277.6C1787.12 277.6 1791.35 278.5 1795.02 280.3C1798.75 282.1 1801.65 284.6 1803.72 287.8C1805.78 291 1806.82 294.733 1806.82 299V299.9C1806.82 304.433 1805.92 308.2 1804.12 311.2C1802.32 314.133 1799.82 316.533 1796.62 318.4C1793.48 320.267 1789.78 321.867 1785.52 323.2L1780.12 324.9C1776.72 325.967 1773.88 327.1 1771.62 328.3C1769.42 329.433 1767.75 330.9 1766.62 332.7C1765.48 334.5 1764.92 336.933 1764.92 340V341.7H1806.22V349H1756.72ZM1842.67 350.4C1837.87 350.4 1833.57 349.467 1829.77 347.6C1826.04 345.667 1823.07 342.933 1820.87 339.4C1818.74 335.867 1817.67 331.667 1817.67 326.8V302.4C1817.67 297.133 1818.7 292.667 1820.77 289C1822.84 285.333 1825.74 282.533 1829.47 280.6C1833.27 278.6 1837.77 277.6 1842.97 277.6C1848.1 277.6 1852.47 278.533 1856.07 280.4C1859.74 282.2 1862.5 284.7 1864.37 287.9C1866.3 291.033 1867.27 294.667 1867.27 298.8H1859.07C1859.07 294.667 1857.74 291.333 1855.07 288.8C1852.4 286.2 1848.37 284.9 1842.97 284.9C1837.5 284.9 1833.27 286.4 1830.27 289.4C1827.27 292.333 1825.77 296.4 1825.77 301.6V311.3H1827.17C1828.37 309.3 1830.37 307.467 1833.17 305.8C1835.97 304.067 1839.87 303.2 1844.87 303.2C1849.07 303.2 1852.9 304.133 1856.37 306C1859.84 307.867 1862.6 310.5 1864.67 313.9C1866.74 317.3 1867.77 321.333 1867.77 326V327.2C1867.77 331.933 1866.67 336.033 1864.47 339.5C1862.34 342.967 1859.37 345.667 1855.57 347.6C1851.77 349.467 1847.47 350.4 1842.67 350.4ZM1842.67 343.1C1847.74 343.1 1851.84 341.667 1854.97 338.8C1858.1 335.933 1859.67 332.033 1859.67 327.1V326.3C1859.67 322.967 1858.94 320.1 1857.47 317.7C1856.07 315.3 1854.1 313.433 1851.57 312.1C1849.04 310.7 1846.07 310 1842.67 310C1839.34 310 1836.4 310.7 1833.87 312.1C1831.34 313.433 1829.34 315.3 1827.87 317.7C1826.47 320.1 1825.77 322.967 1825.77 326.3V327.1C1825.77 332.033 1827.34 335.933 1830.47 338.8C1833.6 341.667 1837.67 343.1 1842.67 343.1Z" fill="white"/>
<defs>
<linearGradient id="paint0_linear_3_33" x1="0" y1="250" x2="2000" y2="250" gradientUnits="userSpaceOnUse">
<stop stop-color="#150222"/>
<stop offset="1" stop-color="#012255"/>
</linearGradient>
</defs>
</svg>
