<svg width="1920" height="1080" viewBox="0 0 1920 1080" fill="none" xmlns="http://www.w3.org/2000/svg">
<rect width="1920" height="1080" fill="#150222"/>
<path d="M860.191 822.002V542.002H925.391L1022.99 800.802H1028.19V542.002H1061.39V822.002H996.191L898.991 562.802H893.391V822.002H860.191Z" fill="white"/>
<path d="M891.382 494.299C982.404 461.169 1072.55 452.23 1144.75 464.629C1216.9 477.02 1271.45 510.805 1290.6 563.427C1309.76 616.05 1289.68 676.996 1242.38 732.865C1195.04 788.771 1120.24 839.869 1029.22 872.998C938.196 906.128 848.05 915.066 775.851 902.667C703.701 890.276 649.148 856.492 629.995 803.87C610.842 751.247 630.916 690.3 678.222 634.431C725.559 578.525 800.361 527.428 891.382 494.299Z" stroke="white" stroke-width="3"/>
<circle cx="1297.01" cy="628.002" r="30.0003" fill="#D9D9D9"/>
<circle cx="1291.01" cy="608.002" r="2.00002" fill="#A7A7A7"/>
<circle cx="1281.01" cy="630.002" r="2.00002" fill="#A7A7A7"/>
<circle cx="1303.01" cy="626.002" r="2.00002" fill="#A7A7A7"/>
<circle cx="1295.01" cy="644.003" r="4.00004" fill="#A7A7A7"/>
<circle cx="1314.01" cy="617.002" r="3.00003" fill="#A7A7A7"/>
<circle cx="1312.01" cy="639.002" r="3.00003" fill="#A7A7A7"/>
<path d="M603.453 286V146H636.053L684.853 275.4H687.453V146H704.053V286H671.453L622.853 156.4H620.053V286H603.453ZM736.266 286V146H822.466V161.2H753.066V208H816.866V223.2H753.066V270.8H823.466V286H736.266ZM842.361 286V271H861.961V161H842.361V146H912.561C920.694 146 927.894 147.467 934.161 150.4C940.561 153.333 945.494 157.467 948.961 162.8C952.561 168 954.361 174.133 954.361 181.2V182.8C954.361 189.333 953.094 194.733 950.561 199C948.028 203.133 945.028 206.4 941.561 208.8C938.094 211.067 934.694 212.733 931.361 213.8V216.6C934.694 217.4 938.161 219 941.761 221.4C945.361 223.667 948.361 226.933 950.761 231.2C953.294 235.467 954.561 240.867 954.561 247.4V249.4C954.561 257 952.694 263.6 948.961 269.2C945.361 274.667 940.361 278.867 933.961 281.8C927.694 284.6 920.494 286 912.361 286H842.361ZM878.761 270.8H910.561C919.361 270.8 926.094 268.733 930.761 264.6C935.428 260.467 937.761 254.867 937.761 247.8V246C937.761 238.933 935.428 233.333 930.761 229.2C926.094 225.067 919.361 223 910.561 223H878.761V270.8ZM878.761 207.8H911.161C919.161 207.8 925.561 205.8 930.361 201.8C935.161 197.667 937.561 192.267 937.561 185.6V183.6C937.561 176.8 935.161 171.4 930.361 167.4C925.694 163.267 919.294 161.2 911.161 161.2H878.761V207.8ZM1031.79 288.8C1021.39 288.8 1012.32 286.933 1004.59 283.2C996.854 279.467 990.854 273.933 986.588 266.6C982.321 259.133 980.188 250 980.188 239.2V146H996.788V239.4C996.788 250.867 999.854 259.467 1005.99 265.2C1012.12 270.933 1020.72 273.8 1031.79 273.8C1042.85 273.8 1051.45 270.933 1057.59 265.2C1063.72 259.467 1066.79 250.867 1066.79 239.4V146H1083.59V239.2C1083.59 250 1081.45 259.133 1077.19 266.6C1072.92 273.933 1066.85 279.467 1058.99 283.2C1051.25 286.933 1042.19 288.8 1031.79 288.8ZM1114.39 286V146H1131.19V270.8H1201.99V286H1114.39ZM1212.57 286L1255.77 146H1285.37L1328.57 286H1311.17L1300.37 250.6H1240.77L1229.97 286H1212.57ZM1244.97 235.4H1295.97L1271.97 156.2H1269.17L1244.97 235.4Z" fill="white"/>
</svg>
